<?xml version="1.0" encoding="UTF-8" standalone="no"?>
<svg
   xmlns:dc="http://purl.org/dc/elements/1.1/"
   xmlns:cc="http://creativecommons.org/ns#"
   xmlns:rdf="http://www.w3.org/1999/02/22-rdf-syntax-ns#"
   xmlns:svg="http://www.w3.org/2000/svg"
   xmlns="http://www.w3.org/2000/svg"
   xmlns:sodipodi="http://sodipodi.sourceforge.net/DTD/sodipodi-0.dtd"
   xmlns:inkscape="http://www.inkscape.org/namespaces/inkscape"
   inkscape:version="1.0 (4035a4f, 2020-05-01)"
   sodipodi:docname="anonimo_logo_@_color.svg"
   id="svg2533"
   version="1.1"
   viewBox="0 0 15.000486 15.000025"
   height="15.000025mm"
   width="15.000486mm">
  <defs
     id="defs2527" />
  <sodipodi:namedview
     inkscape:window-maximized="0"
     inkscape:window-y="23"
     inkscape:window-x="0"
     inkscape:window-height="812"
     inkscape:window-width="1440"
     fit-margin-bottom="0"
     fit-margin-right="0"
     fit-margin-left="0"
     fit-margin-top="0"
     showgrid="false"
     inkscape:document-rotation="0"
     inkscape:current-layer="layer1"
     inkscape:document-units="mm"
     inkscape:cy="105.53333"
     inkscape:cx="113.11748"
     inkscape:zoom="1.2457055"
     inkscape:pageshadow="2"
     inkscape:pageopacity="0.0"
     borderopacity="1.0"
     bordercolor="#666666"
     pagecolor="#ffffff"
     id="base" />
  <metadata
     id="metadata2530">
    <rdf:RDF>
      <cc:Work
         rdf:about="">
        <dc:format>image/svg+xml</dc:format>
        <dc:type
           rdf:resource="http://purl.org/dc/dcmitype/StillImage" />
        <dc:title></dc:title>
      </cc:Work>
    </rdf:RDF>
  </metadata>
  <g
     transform="translate(-72.047529,-62.047607)"
     id="layer1"
     inkscape:groupmode="layer"
     inkscape:label="レイヤー 1">
    <path
       sodipodi:nodetypes="csccccccccssccccssssssscscccscsssscssccscccsccsccsccscccsccscscscscsccssssssssccssssssssccccccsscccscscscsc"
       id="path847-5-1"
       style="font-style:normal;font-variant:normal;font-weight:bold;font-stretch:normal;font-size:10.58329999999999949px;line-height:1.25;font-family:Syncopate;-inkscape-font-specification:'Syncopate Bold';white-space:pre;fill:#e60023;fill-opacity:1;stroke:none;stroke-width:0.872149"
       d="m 79.547539,62.047607 c -4.132445,0 -7.50001,3.367564 -7.50001,7.500013 -10e-7,1.768759 0.618403,3.396036 1.648192,4.680465 l -0.0045,0.0036 c 0.703968,0.787592 1.507245,1.473758 2.299442,1.915873 1.154623,0.539317 2.485055,0.890168 3.556881,0.900074 1.249943,-0.113427 2.684942,-0.43025 3.690737,-0.971546 l -0.04913,-1.978099 c -0.981027,0.784818 -2.133627,1.201233 -3.294576,1.270508 v -0.0026 c -0.114942,0.007 -0.230359,0.01125 -0.347035,0.01125 -0.605416,0 -1.188775,-0.09156 -1.736977,-0.2614 -1.36e-4,-4.3e-5 -2.31e-4,4.4e-5 -4.5e-4,0 -0.09117,-0.02987 -0.181524,-0.06144 -0.265905,-0.09017 -0.967824,-0.354345 -1.854817,-0.970848 -2.548221,-1.837525 l -0.0036,0.0027 c -0.797021,-0.996798 -1.273675,-2.261969 -1.273673,-3.642975 0,-3.228884 2.599953,-5.827484 5.828833,-5.827484 3.22888,0 5.829275,2.5986 5.829285,5.827484 2e-6,0.456246 -0.05202,0.899728 -0.150531,1.325041 -0.09851,0.425315 -0.230814,0.834631 -0.429063,1.215973 -0.02536,0.04879 -0.06048,0.09233 -0.096,0.134308 -0.02496,0.02951 -0.05283,0.0567 -0.08202,0.08202 -0.03097,0.02686 -0.06372,0.05181 -0.09825,0.07391 -0.03453,0.02211 -0.07077,0.04134 -0.108169,0.05814 -0.0374,0.0168 -0.07628,0.03157 -0.11583,0.04236 -0.04876,0.01329 -0.0984,0.02284 -0.148729,0.02749 -0.05168,0.0048 -0.104248,0.0046 -0.15594,0 -0.04763,-0.0043 -0.09477,-0.01373 -0.141068,-0.02569 -0.03309,-0.0085 -0.06522,-0.02009 -0.0969,-0.0329 -0.02788,-0.01129 -0.05514,-0.02397 -0.08157,-0.03831 -0.02764,-0.015 -0.05508,-0.03132 -0.08067,-0.04957 -0.03529,-0.02516 -0.06916,-0.05255 -0.100507,-0.08248 -0.02965,-0.02831 -0.05705,-0.05898 -0.08203,-0.09149 -0.02771,-0.03606 -0.05302,-0.07411 -0.07481,-0.114026 -0.01964,-0.03598 -0.03611,-0.07366 -0.05003,-0.112223 -0.01472,-0.04076 -0.02885,-0.08242 -0.03516,-0.125295 -0.02606,-0.177185 -0.01126,-0.537227 -0.01126,-0.537227 v -2.587432 -0.176221 c 0,-0.381588 -0.09014,-0.710597 -0.270416,-0.987023 -0.177279,-0.276424 -0.424712,-0.504778 -0.743204,-0.685056 -0.315484,-0.180276 -0.692568,-0.312033 -1.131242,-0.39616 -0.438674,-0.08714 -0.917915,-0.130703 -1.437715,-0.130703 -0.264407,0 -0.540834,0.01157 -0.829278,0.0356 -0.288445,0.02102 -0.573885,0.05107 -0.856321,0.09014 -0.282433,0.03605 -0.554352,0.07962 -0.815754,0.130704 -0.261403,0.05108 -0.497267,0.10366 -0.707592,0.157741 v 1.487292 c 0.201311,-0.07812 0.425156,-0.153237 0.671535,-0.225346 0.246379,-0.07211 0.506281,-0.135209 0.7797,-0.189292 0.276425,-0.05408 0.561867,-0.09615 0.856321,-0.126194 0.297458,-0.03305 0.597922,-0.04957 0.901389,-0.04957 0.384591,0 0.70008,0.02404 0.946458,0.07211 0.249383,0.04807 0.444686,0.111173 0.585903,0.189289 0.14422,0.07512 0.243377,0.163755 0.297458,0.265913 0.05408,0.09915 0.08113,0.199805 0.08113,0.301963 v 0.130705 c -0.979509,0.05408 -1.828323,0.129197 -2.546424,0.225345 -0.715104,0.09615 -1.307017,0.232861 -1.775739,0.410133 -0.46872,0.177273 -0.817258,0.405627 -1.045612,0.685055 -0.228351,0.276428 -0.342527,0.623464 -0.342527,1.041106 0,0.330509 0.07211,0.609942 0.216334,0.838291 0.147227,0.228354 0.341027,0.413138 0.581396,0.554357 0.240369,0.141218 0.515296,0.243371 0.824772,0.30647 0.312479,0.0631 0.635479,0.09465 0.968993,0.09465 0.285437,0 0.567875,-0.01652 0.847304,-0.04957 0.282436,-0.03005 0.555858,-0.07662 0.820265,-0.139716 0.264406,-0.0631 0.518301,-0.139716 0.761672,-0.229856 0.24638,-0.09014 0.476237,-0.193798 0.689563,-0.310978 0,0 0.06582,0.261368 0.108616,0.388948 0.03892,0.115998 0.08126,0.231377 0.134309,0.341627 0.0525,0.109099 0.113435,0.214238 0.181179,0.314585 0.06737,0.0998 0.142221,0.195171 0.223094,0.28439 0.06744,0.07441 0.141762,0.142482 0.217686,0.20822 0.07568,0.06552 0.152958,0.129809 0.236615,0.184784 0.118986,0.0782 0.245154,0.146152 0.374978,0.204617 0.129419,0.05828 0.262651,0.109719 0.400215,0.144671 0.162639,0.04132 0.330424,0.06726 0.498019,0.07572 0.170324,0.0085 0.341724,-0.0021 0.510637,-0.02569 0.123268,-0.01715 0.245753,-0.0455 0.36416,-0.08383 0.154796,-0.05011 0.30725,-0.110491 0.449345,-0.189744 0.175295,-0.09777 0.34224,-0.213871 0.490805,-0.348838 0.14824,-0.134671 0.281492,-0.288244 0.393457,-0.4543 0.113001,-0.167595 0.195545,-0.362914 0.276278,-0.539931 0.08073,-0.177018 0.142295,-0.344588 0.209121,-0.536778 0.133654,-0.384373 0.237178,-0.78288 0.306922,-1.192538 0.06975,-0.40966 0.105915,-0.830563 0.105915,-1.25969 -2e-6,-4.132449 -3.368013,-7.500012 -7.500461,-7.500012 z m 2.019111,7.766372 v 0.815758 c -0.162248,0.114177 -0.347036,0.222343 -0.554354,0.324501 -0.204314,0.09915 -0.423651,0.186284 -0.658012,0.261402 -0.234362,0.07211 -0.482245,0.1292 -0.743647,0.171264 -0.261402,0.04206 -0.528815,0.0631 -0.802237,0.0631 -0.246379,0 -0.450694,-0.01502 -0.612943,-0.04507 -0.162252,-0.03005 -0.292952,-0.0706 -0.392105,-0.121688 -0.09615,-0.05108 -0.163749,-0.10967 -0.202813,-0.175771 -0.03906,-0.06911 -0.05859,-0.139718 -0.05859,-0.211827 0,-0.06009 0.009,-0.126195 0.02704,-0.198304 0.02102,-0.07211 0.07362,-0.144225 0.157744,-0.216333 0.08413,-0.07211 0.210325,-0.142718 0.378583,-0.211827 0.171264,-0.06911 0.405626,-0.133709 0.703083,-0.1938 0.297458,-0.06009 0.670034,-0.112678 1.117724,-0.157743 0.450693,-0.04507 0.997537,-0.07962 1.640526,-0.10366 z" />
  </g>
</svg>
